<?xml version="1.0" encoding="utf-8"?>
<!-- Generator: Adobe Illustrator 21.0.0, SVG Export Plug-In . SVG Version: 6.00 Build 0)  -->
<svg version="1.1" id="Layer_1" xmlns="http://www.w3.org/2000/svg" xmlns:xlink="http://www.w3.org/1999/xlink" x="0px" y="0px"
	 viewBox="0 0 60 60" style="enable-background:new 0 0 60 60;" xml:space="preserve">
<style type="text/css">
	.st0{stroke:#000000;stroke-width:0.25;stroke-miterlimit:10;}
</style>
<g>
	<polygon class="st0" points="48.5,31.5 48.5,48.5 11.5,48.5 11.5,11.5 28.5,11.5 28.5,8.5 8.5,8.5 8.5,51.5 51.5,51.5 51.5,31.5 	
		"/>
	<path class="st0" d="M22.091,24.381l-0.068-1.641H19.63v14.793h2.529V26.732c0.61-1.413,1.745-2.119,3.404-2.119
		c2.105,0,3.158,1.076,3.158,3.227v9.693h2.543v-9.816c0.101-0.948,0.46-1.702,1.08-2.263s1.399-0.841,2.338-0.841
		c1.14,0,1.95,0.262,2.434,0.786c0.483,0.524,0.725,1.315,0.725,2.372v9.762h2.529v-9.912c-0.055-3.436-1.704-5.154-4.949-5.154
		c-1.075,0-2.008,0.219-2.796,0.656s-1.429,1.012-1.921,1.723c-0.747-1.586-2.155-2.379-4.225-2.379
		C24.639,22.467,23.175,23.105,22.091,24.381z"/>
	<path class="st0" d="M44.098,13.391c0.271-0.324,0.642-0.486,1.113-0.486c0.437,0,0.773,0.133,1.008,0.4
		c0.235,0.267,0.353,0.633,0.353,1.098c0,0.341-0.112,0.701-0.335,1.08c-0.223,0.379-0.568,0.824-1.034,1.333l-3.393,3.616v1.426H49
		V20.18h-4.509l2.384-2.514c0.653-0.715,1.114-1.342,1.383-1.88c0.269-0.538,0.403-1.066,0.403-1.585
		c0-0.946-0.299-1.678-0.897-2.197c-0.598-0.519-1.437-0.778-2.517-0.778c-0.706,0-1.337,0.15-1.894,0.45s-0.988,0.714-1.293,1.243
		c-0.305,0.528-0.457,1.112-0.457,1.75h2.089C43.691,14.141,43.827,13.715,44.098,13.391z"/>
</g>
</svg>
